<svg width="25" height="24" viewBox="0 0 25 24" fill="none" xmlns="http://www.w3.org/2000/svg">
<path d="M23.22 8.45L16.03 7.36L12.81 0.529996C12.72 0.339996 12.58 0.189996 12.4 0.0999965C11.95 -0.130004 11.41 0.0599965 11.18 0.529996L7.96 7.36L0.78 8.45C0.58 8.48 0.4 8.58 0.26 8.73C0.09 8.91 0 9.15 0 9.4C0 9.65 0.1 9.89 0.27 10.07L5.48 15.38L4.25 22.88C4.22 23.05 4.24 23.23 4.3 23.4C4.36 23.56 4.47 23.71 4.61 23.81C4.75 23.91 4.91 23.98 5.08 23.99C5.25 24 5.42 23.97 5.57 23.88L12.01 20.34L18.45 23.88C18.63 23.98 18.83 24.01 19.03 23.97C19.52 23.88 19.85 23.39 19.77 22.88L18.54 15.38L23.75 10.07C23.89 9.92 23.99 9.73 24.01 9.53C24.09 9.01 23.74 8.53 23.24 8.45H23.22Z" fill="#0D1D4A"/>
</svg>
