<svg width="76" height="76" viewBox="0 0 76 76" fill="none" xmlns="http://www.w3.org/2000/svg">
<g clip-path="url(#clip0_2536_12969)">
<path fill-rule="evenodd" clip-rule="evenodd" d="M34.7512 4.18176C16.5119 4.18176 1.72726 18.992 1.72726 37.2618V38.909C1.72726 42.8851 2.42839 46.6952 3.7122 50.2269C5.91583 49.9934 8.38756 49.6072 11.0533 48.9825C13.998 48.2916 16.6063 47.4451 18.8455 46.584C17.8625 44.4269 17.3096 42.0334 17.3096 39.5069V38.656C17.3096 29.2283 24.9391 21.5854 34.3509 21.5854C38.6339 21.5854 42.5449 23.173 45.5383 25.7869C45.5289 25.7789 45.5172 25.7672 45.5085 25.7585C46.4886 23.9447 48.4845 20.8356 52.1121 18.2232C54.7488 16.325 57.2983 15.3723 59.058 14.8749C53.0218 8.30322 44.3678 4.18176 34.7512 4.18176Z" fill="url(#paint0_linear_2536_12969)"/>
<path fill-rule="evenodd" clip-rule="evenodd" d="M51.374 45.3075V45.7825V51.3643V56.4675H34.3211C32.6929 56.4675 31.1199 56.2348 29.629 55.8079C21.9458 57.9345 14.4543 58.4094 7.73224 58.0654C13.7161 66.5337 23.5703 72.0675 34.7207 72.0675H77.6461C72.1904 72.0675 67.7679 67.6399 67.7679 62.1795V39.4392C66.9367 39.2486 66.1223 39.1599 65.3165 39.1599C60.8482 39.1592 56.6488 41.8995 51.374 45.3075Z" fill="url(#paint1_linear_2536_12969)"/>
<path fill-rule="evenodd" clip-rule="evenodd" d="M52.1123 18.2232C48.4847 20.8356 46.4888 23.9447 45.5087 25.7585C45.5174 25.7672 45.5291 25.7789 45.5385 25.7869C45.5443 25.792 45.5516 25.7963 45.5574 25.8007C45.6577 25.8894 45.7521 25.9825 45.8502 26.072C45.9294 26.1454 46.0006 26.2072 46.0849 26.2887C46.8027 26.9723 47.461 27.7156 48.0517 28.5134C48.1214 28.6087 48.1904 28.7091 48.2602 28.8065C48.3866 28.9861 48.5108 29.1672 48.6307 29.3512C48.7397 29.5163 48.8465 29.6843 48.954 29.8596C49.0013 29.9374 49.0441 30.0167 49.0899 30.096C49.3297 30.5054 49.5578 30.9396 49.7765 31.4C49.799 31.4494 49.823 31.4996 49.8455 31.5491C50.0707 32.0363 50.2771 32.5512 50.4645 33.0952C50.4732 33.1221 50.4849 33.1483 50.4936 33.1752C50.5437 33.3236 50.6033 33.4596 50.6505 33.6131C50.6941 33.7556 50.7196 33.8894 50.7588 34.0298C50.7595 34.0356 50.761 34.0421 50.7631 34.048C50.9005 34.5469 51.0102 35.0291 51.0945 35.4945C51.1308 35.6851 51.1642 35.8763 51.1933 36.0698C51.2129 36.2072 51.2332 36.3418 51.2492 36.4749C51.34 37.2349 51.3764 37.9367 51.3749 38.5461V45.3076C57.5993 41.2851 62.3291 38.1934 67.7681 39.4392V37.3396C67.7673 37.0429 67.7623 36.7323 67.7535 36.4123C67.7528 36.3898 67.7521 36.3658 67.7514 36.3425C67.6787 33.9847 67.3423 31.0429 66.3687 27.7934C64.6751 22.1411 61.814 18.0807 59.7004 15.6029C59.5842 15.4683 59.4701 15.3316 59.3517 15.2C59.2805 15.1185 59.2086 15.0378 59.1395 14.9607C59.1127 14.9309 59.0843 14.9032 59.0582 14.8749C57.2985 15.3723 54.749 16.3251 52.1123 18.2232Z" fill="url(#paint2_linear_2536_12969)"/>
<path fill-rule="evenodd" clip-rule="evenodd" d="M18.846 46.584C16.6067 47.4451 13.9984 48.2916 11.0537 48.9825C8.38797 49.6072 5.91625 49.9934 3.71262 50.2269L3.71407 50.2334C3.72206 50.256 3.73151 50.2814 3.7395 50.304C4.14564 51.5054 4.69273 52.872 5.44326 54.3309C6.19524 55.7927 6.99009 57.0371 7.7319 58.0654H7.73262C14.4038 58.4065 21.8328 57.9381 29.4551 55.8516C29.5284 55.832 29.5887 55.8174 29.6294 55.808C24.8429 54.4392 20.9181 51.0327 18.8518 46.5818C18.8503 46.5825 18.8489 46.5832 18.846 46.584Z" fill="url(#paint3_linear_2536_12969)"/>
</g>
<defs>
<linearGradient id="paint0_linear_2536_12969" x1="10.4558" y1="19.2135" x2="55.5282" y2="57.0713" gradientUnits="userSpaceOnUse">
<stop stop-color="#6435A5"/>
<stop offset="0.24" stop-color="#6D3AAE"/>
<stop offset="0.63" stop-color="#8747C6"/>
<stop offset="1" stop-color="#934ED1"/>
</linearGradient>
<linearGradient id="paint1_linear_2536_12969" x1="38.9584" y1="54.4989" x2="48.5671" y2="69.091" gradientUnits="userSpaceOnUse">
<stop stop-color="#FECF00"/>
<stop offset="0.34" stop-color="#FDC607"/>
<stop offset="1" stop-color="#FAA81C"/>
</linearGradient>
<linearGradient id="paint2_linear_2536_12969" x1="61.3693" y1="66.1266" x2="42.1628" y2="-9.25779" gradientUnits="userSpaceOnUse">
<stop stop-color="#F85DB9"/>
<stop offset="0.17" stop-color="#EF5CBB"/>
<stop offset="0.45" stop-color="#D558C1"/>
<stop offset="0.81" stop-color="#AC52CB"/>
<stop offset="1" stop-color="#934ED1"/>
</linearGradient>
<linearGradient id="paint3_linear_2536_12969" x1="26.9671" y1="55.1151" x2="15.4105" y2="40.285" gradientUnits="userSpaceOnUse">
<stop stop-color="#F85DB9"/>
<stop offset="0.17" stop-color="#EF5CBB"/>
<stop offset="0.45" stop-color="#D558C1"/>
<stop offset="0.81" stop-color="#AC52CB"/>
<stop offset="1" stop-color="#934ED1"/>
</linearGradient>
<clipPath id="clip0_2536_12969">
<rect width="76" height="76" fill="white"/>
</clipPath>
</defs>
</svg>
